<svg xmlns="http://www.w3.org/2000/svg" width="1787.601" height="1277.496" viewBox="0 0 1787.601 1277.496">
  <g id="Group_6804" data-name="Group 6804" transform="translate(-7962.999 1432)">
    <circle id="Shape" cx="127.686" cy="127.686" r="127.686" transform="translate(8219.01 -1175.99)" fill="#cdac81"/>
    <circle id="Shape-2" data-name="Shape" cx="74.96" cy="74.96" r="74.96" transform="translate(8272.371 -1122.629)" fill="#2e3937"/>
    <circle id="Shape-3" data-name="Shape" cx="39.386" cy="39.386" r="39.386" transform="translate(8307.945 -1087.055)" fill="#36868e"/>
    <circle id="Shape-4" data-name="Shape" cx="127.686" cy="127.686" r="127.686" transform="translate(8729.115 -1175.99)" fill="#feb54f"/>
    <circle id="Shape-5" data-name="Shape" cx="74.96" cy="74.96" r="74.96" transform="translate(8782.476 -1122.629)" fill="#2d374c"/>
    <circle id="Shape-6" data-name="Shape" cx="39.386" cy="39.386" r="39.386" transform="translate(8818.051 -1087.055)" fill="#f1e3cf"/>
    <circle id="Shape-7" data-name="Shape" cx="127.686" cy="127.686" r="127.686" transform="translate(9239.856 -665.247)" fill="#feb54f"/>
    <circle id="Shape-8" data-name="Shape" cx="74.96" cy="74.96" r="74.96" transform="translate(9293.219 -613.157)" fill="#2d374c"/>
    <circle id="Shape-9" data-name="Shape" cx="39.386" cy="39.386" r="39.386" transform="translate(9328.792 -577.583)" fill="#f1e3cf"/>
    <path id="Shape-10" data-name="Shape" d="M62.745,125.49A62.745,62.745,0,1,0,0,62.745,62.745,62.745,0,0,0,62.745,125.49Z" transform="translate(9239.543 -1046.422) rotate(90)" fill="#cdac81"/>
    <path id="Shape-11" data-name="Shape" d="M62.745,125.49A62.745,62.745,0,1,0,0,62.745,62.745,62.745,0,0,0,62.745,125.49Z" transform="translate(9110.288 -1046.422) rotate(90)" fill="#feb54f"/>
    <path id="Shape-12" data-name="Shape" d="M62.745,125.49A62.745,62.745,0,1,0,0,62.745,62.745,62.745,0,0,0,62.745,125.49Z" transform="translate(9239.543 -1173.167) rotate(90)" fill="#feb54f"/>
    <path id="Shape-13" data-name="Shape" d="M0,128.627H64A64.314,64.314,0,1,0,0,64.314Z" transform="translate(9113.112 -1175.99) rotate(90)" fill="#53cab4"/>
    <rect id="Shape-14" data-name="Shape" width="130.51" height="130.51" transform="translate(9433.112 -982.736) rotate(180)" fill="#f1e3cf"/>
    <path id="Shape-15" data-name="Shape" d="M0,79.563H79.563V0H0Z" transform="translate(9423.162 -1047.662) rotate(135)" fill="#53cab4"/>
    <path id="Shape-16" data-name="Shape" d="M0,77.176H77.176A77.176,77.176,0,0,0,0,0Z" transform="translate(9470.758 -1074.344) rotate(180)" fill="#cdac81"/>
    <path id="Shape-17" data-name="Shape" d="M0,0V77.175A77.176,77.176,0,0,0,77.176,0Z" transform="translate(9470.758 -945.09) rotate(180)" fill="#cdac81"/>
    <path id="Shape-18" data-name="Shape" d="M77.175,0H0A77.176,77.176,0,0,0,77.175,77.175Z" transform="translate(9343.386 -945.09) rotate(180)" fill="#cdac81"/>
    <path id="Shape-19" data-name="Shape" d="M77.175,77.176V0A77.176,77.176,0,0,0,0,77.176Z" transform="translate(9343.386 -1074.344) rotate(180)" fill="#cdac81"/>
    <path id="Path_94" data-name="Path 94" d="M0,128.192l128.146-.047L128.193,0,.047.047Z" transform="translate(9714.43 -282.324) rotate(135)" fill="#2e3937"/>
    <path id="Path_95" data-name="Path 95" d="M0,64.549H64.5V0H0Z" transform="translate(9656.035 -250.051) rotate(180)" fill="#53cab4"/>
    <path id="Path_96" data-name="Path 96" d="M127.686,15.371A127.686,127.686,0,0,0,255.371-112.314,127.686,127.686,0,0,0,127.686-240H0v127.686A127.686,127.686,0,0,0,127.686,15.371Z" transform="translate(8984.485 -1191.362)" fill="#f1e3cf"/>
    <path id="Path_97" data-name="Path 97" d="M76.355-87.29a76.355,76.355,0,0,0,76.355-76.355A76.356,76.356,0,0,0,76.355-240H0v76.355A76.355,76.355,0,0,0,76.355-87.29Z" transform="translate(8984.485 -1191.362)" fill="#2e3937"/>
    <path id="Path_98" data-name="Path 98" d="M124.693-36.143A77.959,77.959,0,0,0,202.651-114.1a77.958,77.958,0,0,0-77.959-77.959A77.958,77.958,0,0,0,46.734-114.1,77.959,77.959,0,0,0,124.693-36.143Z" transform="translate(8987.48 -1188.291)" fill="#53cab4"/>
    <path id="Path_99" data-name="Path 99" d="M122.747-70.411a45.636,45.636,0,0,0,45.636-45.636,45.636,45.636,0,0,0-45.636-45.636,45.636,45.636,0,0,0-45.636,45.636A45.636,45.636,0,0,0,122.747-70.411Z" transform="translate(8989.424 -1186.346)" fill="#2e3937"/>
    <path id="Path_100" data-name="Path 100" d="M128.327,255.371H255.371V128.327A128.328,128.328,0,0,0,127.044,0H0V127.044A128.327,128.327,0,0,0,128.327,255.371Z" transform="translate(9495.229 -1431.362) rotate(90)" fill="#53cab4"/>
    <path id="Path_101" data-name="Path 101" d="M75.072,150.143A75.072,75.072,0,1,0,75.072,0H0V75.072A75.071,75.071,0,0,0,75.072,150.143Z" transform="translate(9445.182 -1378.747) rotate(90)" fill="#2e3937"/>
    <path id="Path_102" data-name="Path 102" d="M76.611,127.686h51.074V76.611A76.611,76.611,0,0,0,51.074,0H0V51.074A76.612,76.612,0,0,0,76.611,127.686Z" transform="translate(9367.544 -1303.034) rotate(90)" fill="#feb54f"/>
    <path id="Path_103" data-name="Path 103" d="M128.327,0H255.371V127.044A128.328,128.328,0,0,1,127.044,255.371H0V128.327A128.327,128.327,0,0,1,128.327,0Z" transform="translate(9750.6 -1431.362) rotate(90)" fill="#cdac81"/>
    <path id="Path_104" data-name="Path 104" d="M75.072,0a75.072,75.072,0,1,1,0,150.143H0V75.071A75.071,75.071,0,0,1,75.072,0Z" transform="translate(9695.419 -1378.747) rotate(90)" fill="#2e3937"/>
    <path id="Path_105" data-name="Path 105" d="M76.611,0h51.074V51.074a76.611,76.611,0,0,1-76.611,76.611H0V76.611A76.612,76.612,0,0,1,76.611,0Z" transform="translate(9750.6 -1303.034) rotate(90)" fill="#feb54f"/>
    <path id="Path_106" data-name="Path 106" d="M127.686,255.371A127.686,127.686,0,0,0,127.686,0H0V127.686A127.686,127.686,0,0,0,127.686,255.371Z" transform="translate(9750.6 -409.876) rotate(180)" fill="#f1e3cf"/>
    <path id="Path_107" data-name="Path 107" d="M76.355,152.71A76.355,76.355,0,1,0,76.355,0H0V76.355A76.355,76.355,0,0,0,76.355,152.71Z" transform="translate(9750.6 -409.876) rotate(180)" fill="#cdac81"/>
    <path id="Path_108" data-name="Path 108" d="M77.959,155.917A77.959,77.959,0,1,0,0,77.959,77.959,77.959,0,0,0,77.959,155.917Z" transform="translate(9700.873 -460.886) rotate(180)" fill="#53cab4"/>
    <path id="Path_109" data-name="Path 109" d="M45.636,91.272A45.636,45.636,0,1,0,0,45.636,45.636,45.636,0,0,0,45.636,91.272Z" transform="translate(9668.551 -493.209) rotate(180)" fill="#2e3937"/>
    <ellipse id="Shape-20" data-name="Shape" cx="107.293" cy="107.243" rx="107.293" ry="107.243" transform="translate(8239.078 -900.491)" fill="#f1e3cf"/>
    <path id="Shape-21" data-name="Shape" d="M247.629,0c0,70.171-56.746,127.057-126.744,127.057C120.885,56.885,177.63,0,247.629,0Z" transform="translate(8226.113 -920.619)" fill="#cdac81"/>
    <path id="Shape-22" data-name="Shape" d="M123.356,0h3.7V3.692c0,67.96-55.228,123.053-123.356,123.053H0v-3.691C0,55.093,55.228,0,123.356,0Z" transform="translate(8345.115 -920.619) rotate(90)" fill="#53cab4"/>
    <path id="Shape-23" data-name="Shape" d="M123.053,120.591h3.691v3.7c0,68.128-55.092,123.356-123.052,123.356H0v-3.7C0,175.819,55.093,120.591,123.053,120.591Z" transform="translate(8218.372 -912.895)" fill="#cdac81"/>
    <path id="Shape-24" data-name="Shape" d="M123.356,0h3.7V3.691c0,67.961-55.228,123.053-123.356,123.053H0v-3.691C0,55.092,55.228,0,123.356,0Z" transform="translate(8473.743 -792.304) rotate(90)" fill="#53cab4"/>
    <circle id="Shape-25" data-name="Shape" cx="107.293" cy="107.293" r="107.293" transform="translate(9004.915 -900.827)" fill="#f1e3cf"/>
    <path id="Shape-26" data-name="Shape" d="M123.967,247.686A123.967,123.967,0,0,1,0,123.719V120H3.719A123.967,123.967,0,0,1,127.686,243.967v3.719Z" transform="translate(8984.485 -912.933)" fill="#cdac81"/>
    <path id="Shape-27" data-name="Shape" d="M243.967,120h3.719v3.719A123.967,123.967,0,0,1,123.719,247.686H120v-3.719A123.967,123.967,0,0,1,243.967,120Z" transform="translate(8992.172 -912.933)" fill="#53cab4"/>
    <path id="Shape-28" data-name="Shape" d="M123.719,127.686H120v-3.719A123.967,123.967,0,0,1,243.967,0h3.719V3.719A123.967,123.967,0,0,1,123.719,127.686Z" transform="translate(8992.172 -920.619)" fill="#cdac81"/>
    <path id="Shape-29" data-name="Shape" d="M3.719,0A123.967,123.967,0,0,1,127.686,123.967v3.719h-3.719A123.967,123.967,0,0,1,0,3.719V0Z" transform="translate(8984.485 -920.619)" fill="#53cab4"/>
    <circle id="Shape-30" data-name="Shape" cx="107.293" cy="107.293" r="107.293" transform="translate(8198.58 -644.818) rotate(90)" fill="#f1e3cf"/>
    <path id="Shape-31" data-name="Shape" d="M123.967,127.686A123.967,123.967,0,0,1,0,3.719V0H3.719A123.967,123.967,0,0,1,127.686,123.967v3.719Z" transform="translate(8090.687 -665.247) rotate(90)" fill="#cdac81"/>
    <path id="Shape-32" data-name="Shape" d="M123.967,0h3.719V3.719A123.967,123.967,0,0,1,3.719,127.686H0v-3.719A123.967,123.967,0,0,1,123.967,0Z" transform="translate(8090.687 -537.562) rotate(90)" fill="#53cab4"/>
    <path id="Shape-33" data-name="Shape" d="M3.719,127.686H0v-3.719A123.967,123.967,0,0,1,123.967,0h3.719V3.719A123.967,123.967,0,0,1,3.719,127.686Z" transform="translate(8218.372 -537.562) rotate(90)" fill="#cdac81"/>
    <path id="Shape-34" data-name="Shape" d="M3.719,0A123.967,123.967,0,0,1,127.686,123.967v3.719h-3.719A123.967,123.967,0,0,1,0,3.719V0Z" transform="translate(8218.372 -665.247) rotate(90)" fill="#53cab4"/>
    <path id="Shape-35" data-name="Shape" d="M255.371,0V255.371H0C0,114.334,114.334,0,255.371,0Z" transform="translate(8473.743 -1431.362)" fill="#cdac81"/>
    <path id="Shape-36" data-name="Shape" d="M248.746,103.784v144.94h-145.3C103.448,168.676,168.5,103.784,248.746,103.784Z" transform="translate(8480.368 -1424.714)" fill="#f1e3cf"/>
    <path id="Shape-37" data-name="Shape" d="M244.013,177.494V244H177.34A66.592,66.592,0,0,1,244.013,177.494Z" transform="translate(8485.102 -1419.994)" fill="#2e3937"/>
    <path id="Shape-38" data-name="Shape" d="M255.371,0V255.371H0C0,114.334,114.334,0,255.371,0Z" transform="translate(9750.6 -920.619) rotate(90)" fill="#cdac81"/>
    <path id="Shape-39" data-name="Shape" d="M145.3,0V144.94H0C0,64.892,65.053,0,145.3,0Z" transform="translate(9640.169 -810.545) rotate(90)" fill="#f1e3cf"/>
    <path id="Shape-40" data-name="Shape" d="M66.673,0V66.509H0A66.592,66.592,0,0,1,66.673,0Z" transform="translate(9561.737 -731.921) rotate(90)" fill="#2e3937"/>
    <path id="Shape-41" data-name="Shape" d="M255.371,0V255.371H0C0,114.334,114.334,0,255.371,0Z" transform="translate(8218.372 -665.247) rotate(180)" fill="#53cab4"/>
    <path id="Shape-42" data-name="Shape" d="M144.94,0V145.3H0C0,65.053,64.892,0,144.94,0Z" transform="translate(8107.94 -775.321) rotate(180)" fill="#f1e3cf"/>
    <path id="Shape-43" data-name="Shape" d="M66.509,0V66.673H0A66.592,66.592,0,0,1,66.509,0Z" transform="translate(8029.509 -853.946) rotate(180)" fill="#2e3937"/>
    <path id="Shape-44" data-name="Shape" d="M255.371,0V255.371H0C0,114.334,114.334,0,255.371,0Z" transform="translate(9239.856 -920.619)" fill="#53cab4"/>
    <path id="Shape-45" data-name="Shape" d="M248.724,103.448v145.3H103.784C103.784,168.5,168.676,103.448,248.724,103.448Z" transform="translate(9246.505 -913.993)" fill="#f1e3cf"/>
    <path id="Shape-46" data-name="Shape" d="M244,177.34v66.673H177.494A66.592,66.592,0,0,1,244,177.34Z" transform="translate(9251.225 -909.261)" fill="#2e3937"/>
    <path id="Shape-47" data-name="Shape" d="M127.686,0A127.686,127.686,0,1,1,0,127.686,127.686,127.686,0,0,1,127.686,0Z" transform="translate(7963.638 -1431.362)" fill="#53cab4"/>
    <path id="Shape-48" data-name="Shape" d="M125.217,48.354a76.863,76.863,0,1,1-76.863,76.863A76.863,76.863,0,0,1,125.217,48.354Z" transform="translate(7966.735 -1428.265)" fill="#f1e3cf"/>
    <path id="Shape-49" data-name="Shape" d="M124.243,83.145a41.1,41.1,0,1,1-41.1,41.1A41.1,41.1,0,0,1,124.243,83.145Z" transform="translate(7968.963 -1426.036)" fill="#2d374c"/>
    <path id="Shape-50" data-name="Shape" d="M249.329,94.349v154.98H94.349A154.98,154.98,0,0,1,249.329,94.349Z" transform="translate(7969.682 -1425.319)" fill="#cdac81"/>
    <path id="Shape-51" data-name="Shape" d="M127.686,0A127.686,127.686,0,1,1,0,127.686,127.686,127.686,0,0,1,127.686,0Z" transform="translate(9239.856 -409.876)" fill="#53cab4"/>
    <path id="Shape-52" data-name="Shape" d="M125.217,48.354a76.863,76.863,0,1,1-76.863,76.863A76.863,76.863,0,0,1,125.217,48.354Z" transform="translate(9242.954 -406.779)" fill="#f1e3cf"/>
    <path id="Shape-53" data-name="Shape" d="M124.243,83.145a41.1,41.1,0,1,1-41.1,41.1A41.1,41.1,0,0,1,124.243,83.145Z" transform="translate(9245.183 -404.551)" fill="#2e3937"/>
    <path id="Shape-54" data-name="Shape" d="M249.329,94.349v154.98H94.349A154.98,154.98,0,0,1,249.329,94.349Z" transform="translate(9245.9 -403.833)" fill="#cdac81"/>
    <path id="Shape-55" data-name="Shape" d="M62.745,0A62.745,62.745,0,1,1,0,62.745,62.745,62.745,0,0,1,62.745,0Z" transform="translate(8344.5 -1306.511) rotate(180)" fill="#feb54f"/>
    <path id="Shape-56" data-name="Shape" d="M62.745,0A62.745,62.745,0,1,1,0,62.745,62.745,62.745,0,0,1,62.745,0Z" transform="translate(8344.5 -1176.628) rotate(180)" fill="#cdac81"/>
    <path id="Shape-57" data-name="Shape" d="M62.745,0A62.745,62.745,0,1,1,0,62.745,62.745,62.745,0,0,1,62.745,0Z" transform="translate(8471.871 -1306.511) rotate(180)" fill="#cdac81"/>
    <path id="Shape-58" data-name="Shape" d="M0,0H64.313A64.314,64.314,0,1,1,0,64.313Z" transform="translate(8474.381 -1176.629) rotate(180)" fill="#53cab4"/>
    <path id="Shape-59" data-name="Shape" d="M62.745,0A62.745,62.745,0,1,1,0,62.745,62.745,62.745,0,0,1,62.745,0Z" transform="translate(8603.312 -539.444) rotate(-90)" fill="#cdac81"/>
    <path id="Shape-60" data-name="Shape" d="M62.745,0A62.745,62.745,0,1,1,0,62.745,62.745,62.745,0,0,1,62.745,0Z" transform="translate(8474.057 -539.444) rotate(-90)" fill="#feb54f"/>
    <path id="Shape-61" data-name="Shape" d="M62.745,0A62.745,62.745,0,1,1,0,62.745,62.745,62.745,0,0,1,62.745,0Z" transform="translate(8603.312 -412.699) rotate(-90)" fill="#feb54f"/>
    <path id="Shape-62" data-name="Shape" d="M0,0H64A64.314,64.314,0,1,1,0,64.313Z" transform="translate(8473.743 -409.876) rotate(-90)" fill="#53cab4"/>
    <path id="Shape-63" data-name="Shape" d="M62.745,0A62.745,62.745,0,1,1,0,62.745,62.745,62.745,0,0,1,62.745,0Z" transform="translate(8088.489 -284.386) rotate(180)" fill="#cdac81"/>
    <path id="Shape-64" data-name="Shape" d="M62.745,0A62.745,62.745,0,1,1,0,62.745,62.745,62.745,0,0,1,62.745,0Z" transform="translate(8088.489 -154.504) rotate(180)" fill="#feb54f"/>
    <path id="Shape-65" data-name="Shape" d="M62.745,0A62.745,62.745,0,1,1,0,62.745,62.745,62.745,0,0,1,62.745,0Z" transform="translate(8215.862 -284.386) rotate(180)" fill="#feb54f"/>
    <path id="Shape-66" data-name="Shape" d="M0,0H64.313A64.314,64.314,0,1,1,0,64.313Z" transform="translate(8218.372 -154.504) rotate(180)" fill="#53cab4"/>
    <rect id="Shape-67" data-name="Shape" width="130.51" height="130.51" transform="translate(8922.37 -472.621) rotate(180)" fill="#f1e3cf"/>
    <path id="Shape-68" data-name="Shape" d="M0,0H79.563V79.563H0Z" transform="translate(8856.158 -481.944) rotate(-135)" fill="#53cab4"/>
    <path id="Shape-69" data-name="Shape" d="M0,0H77.176A77.176,77.176,0,0,1,0,77.176Z" transform="translate(8960.015 -434.346) rotate(180)" fill="#cdac81"/>
    <path id="Shape-70" data-name="Shape" d="M0,77.175V0A77.176,77.176,0,0,1,77.176,77.175Z" transform="translate(8960.015 -563.601) rotate(180)" fill="#cdac81"/>
    <path id="Shape-71" data-name="Shape" d="M77.175,77.175H0A77.176,77.176,0,0,1,77.175,0Z" transform="translate(8832.643 -563.601) rotate(180)" fill="#cdac81"/>
    <path id="Shape-72" data-name="Shape" d="M77.175,0V77.176A77.176,77.176,0,0,1,0,0Z" transform="translate(8832.643 -434.346) rotate(180)" fill="#cdac81"/>
    <path id="Path_110" data-name="Path 110" d="M0,0,128.145.047l.047,128.144L.047,128.144Z" transform="translate(8091.555 -957.524) rotate(-135)" fill="#feb54f"/>
    <path id="Path_111" data-name="Path 111" d="M0,0,64.525.024l.023,64.525L.024,64.525Z" transform="translate(8091.555 -1002.526) rotate(-135)" fill="#f1e3cf"/>
    <rect id="Rectangle_467" data-name="Rectangle 467" width="79.563" height="79.563" transform="translate(8844.609 -1314.584) rotate(180)" fill="#f1e3cf"/>
    <rect id="Rectangle_468" data-name="Rectangle 468" width="79.563" height="79.563" transform="translate(8844.609 -1214.488) rotate(180)" fill="#f1e3cf"/>
    <rect id="Rectangle_469" data-name="Rectangle 469" width="79.563" height="79.563" transform="translate(8947.271 -1314.584) rotate(180)" fill="#f1e3cf"/>
    <rect id="Rectangle_470" data-name="Rectangle 470" width="79.563" height="79.563" transform="translate(8947.271 -1214.488) rotate(180)" fill="#f1e3cf"/>
    <rect id="Rectangle_471" data-name="Rectangle 471" width="37.215" height="37.215" transform="translate(8822.793 -1336.4) rotate(180)" fill="#2e3937"/>
    <rect id="Rectangle_472" data-name="Rectangle 472" width="37.215" height="37.215" transform="translate(8822.793 -1236.304) rotate(180)" fill="#2e3937"/>
    <rect id="Rectangle_473" data-name="Rectangle 473" width="37.215" height="37.215" transform="translate(8925.455 -1336.4) rotate(180)" fill="#2e3937"/>
    <rect id="Rectangle_474" data-name="Rectangle 474" width="37.215" height="37.215" transform="translate(8925.455 -1236.304) rotate(180)" fill="#2e3937"/>
    <path id="Path_112" data-name="Path 112" d="M0,0,128.145.047l.047,128.145L.047,128.145Z" transform="translate(8602.935 -702.153) rotate(-135)" fill="#2e3937"/>
    <path id="Path_113" data-name="Path 113" d="M0,0H64.5V64.549H0Z" transform="translate(8635.186 -760.524) rotate(180)" fill="#53cab4"/>
    <path id="Path_114" data-name="Path 114" d="M127.686,0a127.686,127.686,0,0,1,0,255.371H0V127.686A127.686,127.686,0,0,1,127.686,0Z" transform="translate(8473.743 -409.876)" fill="#f1e3cf"/>
    <path id="Path_115" data-name="Path 115" d="M76.355,96.482a76.355,76.355,0,1,1,0,152.71H0V172.837A76.355,76.355,0,0,1,76.355,96.482Z" transform="translate(8473.743 -403.696)" fill="#2e3937"/>
    <path id="Path_116" data-name="Path 116" d="M124.693,45.528a77.959,77.959,0,1,1-77.959,77.959A77.959,77.959,0,0,1,124.693,45.528Z" transform="translate(8476.736 -406.96)" fill="#53cab4"/>
    <path id="Path_117" data-name="Path 117" d="M122.747,75.9a45.636,45.636,0,1,1-45.636,45.636A45.636,45.636,0,0,1,122.747,75.9Z" transform="translate(8478.683 -405.014)" fill="#2e3937"/>
    <path id="Path_118" data-name="Path 118" d="M127.686,0H255.371V127.686A127.686,127.686,0,0,1,127.686,255.371H0V127.686A127.686,127.686,0,0,1,127.686,0Z" transform="translate(8218.372 -665.247)" fill="#53cab4"/>
    <path id="Path_119" data-name="Path 119" d="M124.519,51.859a75.072,75.072,0,1,1,0,150.143H49.447V126.931A75.071,75.071,0,0,1,124.519,51.859Z" transform="translate(8221.538 -661.926)" fill="#2e3937"/>
    <path id="Path_120" data-name="Path 120" d="M197.214,0h51.074V51.074a76.611,76.611,0,0,1-76.611,76.611H120.6V76.611A76.612,76.612,0,0,1,197.214,0Z" transform="translate(8226.096 -665.247)" fill="#f1e3cf"/>
    <path id="Path_121" data-name="Path 121" d="M128.327,0H255.371V127.044A128.328,128.328,0,0,1,127.044,255.371H0V128.327A128.327,128.327,0,0,1,128.327,0Z" transform="translate(8729.115 -154.504) rotate(-90)" fill="#53cab4"/>
    <path id="Path_122" data-name="Path 122" d="M75.072,0a75.072,75.072,0,1,1,0,150.143H0V75.071A75.071,75.071,0,0,1,75.072,0Z" transform="translate(8784.295 -207.119) rotate(-90)" fill="#2e3937"/>
    <path id="Path_123" data-name="Path 123" d="M76.611,0h51.074V51.074a76.611,76.611,0,0,1-76.611,76.611H0V76.611A76.612,76.612,0,0,1,76.611,0Z" transform="translate(8729.115 -282.832) rotate(-90)" fill="#feb54f"/>
    <path id="Path_124" data-name="Path 124" d="M127.686,0a127.686,127.686,0,0,1,0,255.371H0V127.686A127.686,127.686,0,0,1,127.686,0Z" transform="translate(8984.485 -665.247) rotate(180)" fill="#f1e3cf"/>
    <path id="Path_125" data-name="Path 125" d="M76.355,0a76.355,76.355,0,1,1,0,152.71H0V76.355A76.355,76.355,0,0,1,76.355,0Z" transform="translate(8984.485 -767.909) rotate(180)" fill="#cdac81"/>
    <path id="Path_126" data-name="Path 126" d="M77.959,0A77.959,77.959,0,1,1,0,77.959,77.959,77.959,0,0,1,77.959,0Z" transform="translate(8934.759 -713.691) rotate(180)" fill="#53cab4"/>
    <path id="Path_127" data-name="Path 127" d="M45.636,0A45.636,45.636,0,1,1,0,45.636,45.636,45.636,0,0,1,45.636,0Z" transform="translate(8902.437 -746.013) rotate(180)" fill="#2e3937"/>
    <ellipse id="Shape-73" data-name="Shape" cx="107.293" cy="107.243" rx="107.293" ry="107.243" transform="translate(9515.936 -1155.863)" fill="#f1e3cf"/>
    <path id="Shape-74" data-name="Shape" d="M247.629,0c0,70.171-56.746,127.057-126.744,127.057C120.885,56.885,177.63,0,247.629,0Z" transform="translate(9502.971 -1175.99)" fill="#cdac81"/>
    <path id="Shape-75" data-name="Shape" d="M123.356,0h3.7V3.692c0,67.96-55.228,123.053-123.356,123.053H0v-3.691C0,55.093,55.228,0,123.356,0Z" transform="translate(9621.973 -1175.99) rotate(90)" fill="#53cab4"/>
    <path id="Shape-76" data-name="Shape" d="M123.053,120.591h3.691v3.7c0,68.128-55.092,123.356-123.052,123.356H0v-3.7C0,175.819,55.093,120.591,123.053,120.591Z" transform="translate(9495.229 -1168.267)" fill="#cdac81"/>
    <path id="Shape-77" data-name="Shape" d="M123.356,0h3.7V3.691c0,67.961-55.228,123.053-123.356,123.053H0v-3.691C0,55.092,55.228,0,123.356,0Z" transform="translate(9750.6 -1047.675) rotate(90)" fill="#53cab4"/>
    <path id="Shape-78" data-name="Shape" d="M59.4,0H188.363L123.881,64.481Z" transform="translate(8477.546 -1175.99)" fill="#feb54f"/>
    <path id="Shape-79" data-name="Shape" d="M255.371,0V255.371H0Z" transform="translate(8473.743 -1175.99)" fill="#53cab4"/>
    <path id="Shape-80" data-name="Shape" d="M0,0,255.371,255.371H0Z" transform="translate(8473.743 -1175.99)" fill="#f1e3cf"/>
    <path id="Shape-81" data-name="Shape" d="M188.363,243.881H59.4L123.881,179.4Z" transform="translate(8222.176 -398.386)" fill="#53cab4"/>
    <path id="Shape-82" data-name="Shape" d="M0,255.371V0H255.371Z" transform="translate(8218.372 -409.876)" fill="#f1e3cf"/>
    <path id="Shape-83" data-name="Shape" d="M255.371,255.371,0,0H255.371Z" transform="translate(8218.372 -409.876)" fill="#cdac81"/>
    <path id="Shape-84" data-name="Shape" d="M0,0H128.963L64.481,64.481Z" transform="translate(9177.291 -409.876) rotate(180)" fill="#feb54f"/>
    <path id="Shape-85" data-name="Shape" d="M255.371,0V255.371H0Z" transform="translate(9240.494 -409.876) rotate(180)" fill="#53cab4"/>
    <path id="Shape-86" data-name="Shape" d="M0,0,255.371,255.371H0Z" transform="translate(9240.494 -409.876) rotate(180)" fill="#f1e3cf"/>
    <path id="Shape-87" data-name="Shape" d="M59.4,0H188.363L123.881,64.481Z" transform="translate(8988.928 -409.876)" fill="#feb54f"/>
    <path id="Shape-88" data-name="Shape" d="M255.371,0V255.371H0Z" transform="translate(8985.124 -409.876)" fill="#53cab4"/>
    <path id="Shape-89" data-name="Shape" d="M0,0,255.371,255.371H0Z" transform="translate(8985.124 -409.876)" fill="#f1e3cf"/>
  </g>
</svg>
